# Blender v2.82 (sub 7) OBJ File: ''
# www.blender.org
mtllib Maszt.mtl
o Cube
v 1.000000 1.000000 -1.000000
v 1.000000 -1.000000 -1.000000
v 1.000000 1.000000 1.000000
v 1.000000 -1.000000 1.000000
v -1.000000 1.000000 -1.000000
v -1.000000 -1.000000 -1.000000
v -1.000000 1.000000 1.000000
v -1.000000 -1.000000 1.000000
vt 0.625000 0.500000
vt 0.875000 0.500000
vt 0.875000 0.750000
vt 0.625000 0.750000
vt 0.375000 0.750000
vt 0.625000 1.000000
vt 0.375000 1.000000
vt 0.375000 0.000000
vt 0.625000 0.000000
vt 0.625000 0.250000
vt 0.375000 0.250000
vt 0.125000 0.500000
vt 0.375000 0.500000
vt 0.125000 0.750000
vn 0.0000 1.0000 0.0000
vn 0.0000 0.0000 1.0000
vn -1.0000 0.0000 0.0000
vn 0.0000 -1.0000 0.0000
vn 1.0000 0.0000 0.0000
vn 0.0000 0.0000 -1.0000
usemtl Material
s off
f 1/1/1 5/2/1 7/3/1 3/4/1
f 4/5/2 3/4/2 7/6/2 8/7/2
f 8/8/3 7/9/3 5/10/3 6/11/3
f 6/12/4 2/13/4 4/5/4 8/14/4
f 2/13/5 1/1/5 3/4/5 4/5/5
f 6/11/6 5/10/6 1/1/6 2/13/6
o Trirema
v 2.709836 34.559189 -0.561586
v 4.268330 34.559189 -0.561586
v 4.223736 34.591293 -0.946586
v 2.709836 34.591293 -0.946586
v -0.118068 6.454296 -21.181795
v -0.117969 29.809597 -21.018288
v 1.396031 29.809597 -21.018288
v 1.395932 6.444896 -21.181894
v 2.709637 -2.216110 -1.631898
v 2.709637 -2.248207 -0.756698
v 2.709637 10.641090 -0.725694
v 2.709836 29.623596 -0.506988
v 2.709836 29.655693 -1.382188
v 2.709737 10.708992 -1.545694
v 4.268132 -2.248207 -0.756698
v 4.268132 10.659393 -0.725594
v 4.223637 -2.216110 -1.631898
v 4.223637 10.699593 -1.545694
v 4.223736 29.655693 -1.382188
v 4.268330 29.623596 -0.506988
v 3.634236 29.669991 -5.726988
v 2.120335 29.669991 -5.726988
v 2.120335 30.201996 -5.701987
v 3.634236 30.201996 -5.701987
v 2.709836 30.303795 -0.481988
v 2.709836 30.335892 -1.357187
v -0.117969 29.433880 18.792313
v 1.440533 29.433880 18.792313
v 1.440533 29.923679 18.817213
v -0.117969 29.923679 18.817213
v 4.223736 30.335892 -1.357187
v 4.268330 30.303795 -0.481988
v 1.395932 29.783497 -20.615288
v -0.117969 29.783497 -20.615288
v -0.117969 30.371098 -20.586887
v 1.395932 30.371098 -20.586887
v 2.709836 31.078789 -0.453588
v 2.709836 31.110893 -1.328787
v 2.289937 30.299194 3.403913
v 3.848431 30.299194 3.403913
v 3.848431 30.922493 3.432312
v 2.289937 30.922493 3.432312
v 4.223736 31.110893 -1.328787
v 4.268330 31.078789 -0.453588
v 1.030232 6.626782 19.460505
v 1.030331 29.428478 19.679111
v 0.292134 29.428478 19.679111
v 0.292035 6.608479 19.460405
v 2.909932 10.390394 9.132407
v 4.062031 10.405890 9.422806
v 4.223637 10.769991 -10.524994
v 2.709737 10.776598 -10.169193
v 3.494336 -2.248207 -1.530698
v 4.369534 -2.216110 -1.530698
v 4.268132 -1.899136 -0.755857
v 2.709640 -1.911664 -1.629868
v 4.223637 -1.857955 -1.629508
v 2.709637 -2.004987 -0.756113
vt -3.427800 7.341300
vt 3.970500 6.627200
vt 47.053501 5.511300
vt 46.494701 4.654400
vt 46.494701 4.654400
vt 46.494701 4.654400
vt 47.053501 5.511300
vt 47.053501 5.511300
vt 46.494701 4.654400
vt -3.427800 7.341300
vt -3.427800 7.341300
vt 46.494701 4.654400
vt 3.970500 6.627200
vt 3.970500 6.627200
vt 47.053501 5.511300
vt 47.053497 5.511300
vt 47.053501 5.511300
vt 46.494701 4.654400
vt 46.494701 4.654400
vt 47.053501 5.511300
vt 46.494701 4.654400
vt -3.427800 7.341300
vt -3.427800 7.341300
vt 46.494701 4.654400
vt -3.427800 7.341300
vt 3.970500 6.627200
vt 3.970500 6.627200
vt -3.427800 7.341300
vt 3.970500 6.627200
vt 47.053501 5.511300
vt 47.053501 5.511300
vt 3.970500 6.627200
vt 47.053501 5.511300
vt 46.494701 4.654400
vt 46.494701 4.654400
vt 47.053501 5.511300
vt -3.427800 7.341300
vt 46.494701 4.654400
vt -3.427800 7.341300
vt 3.970500 6.627200
vt 3.970500 6.627200
vt -3.427800 7.341300
vt 47.053501 5.511300
vt 3.970500 6.627200
vt 3.970500 6.627200
vt 3.970500 6.627200
vt -3.427800 7.341300
vt -3.427800 7.341300
vt -3.427800 7.341300
vt -3.427800 7.341300
vt 3.970500 6.627200
vt 3.970500 6.627200
vt 47.053501 5.511300
vt 46.494701 4.654400
vt 47.053501 5.511300
vt 46.494701 4.654400
vn 0.0000 0.9965 0.0831
vn -0.0000 0.0070 -1.0000
vn -1.0000 0.0000 -0.0000
vn -0.0000 -0.0024 1.0000
vn 1.0000 -0.0001 -0.0065
vn 1.0000 -0.0001 -0.0066
vn 0.9978 -0.0440 -0.0498
vn 0.9994 0.0307 -0.0188
vn 0.0000 0.0469 -0.9989
vn 0.0000 -0.0508 0.9987
vn 1.0000 0.0003 -0.0079
vn 0.0000 0.0483 -0.9988
vn 0.0000 -0.0455 0.9990
vn 0.0000 0.1092 -0.9940
vn 0.0000 0.0310 0.9995
vn 0.9999 0.0004 -0.0110
vn 0.0000 -1.0000 -0.0033
vn -0.9998 -0.0009 0.0212
vn 0.0000 0.9995 -0.0308
vn 0.9998 0.0009 -0.0212
vn 0.0000 -1.0000 -0.0098
vn 0.9997 -0.0010 0.0228
vn 0.0000 0.9998 0.0197
vn -0.9997 0.0010 -0.0228
vn 0.0000 -0.9996 0.0287
vn -0.9997 -0.0010 0.0229
vn 0.0000 0.9993 -0.0384
vn 0.9997 0.0010 -0.0229
vn 0.0000 -1.0000 -0.0012
vn 0.9999 -0.0007 0.0168
vn 0.0000 0.9992 0.0402
vn -0.9999 0.0007 -0.0168
vn 0.0001 -0.0096 1.0000
vn 0.0000 1.0000 0.0097
vn -0.9998 -0.0052 -0.0197
vn 0.3985 -0.8653 -0.3040
vn 0.9996 0.0053 0.0261
vn 0.0967 -0.9950 -0.0251
vn 0.0000 0.0067 -1.0000
vn 0.0000 1.0000 0.0078
vn 0.9997 0.0052 -0.0236
vn 0.2346 -0.9061 0.3520
vn 0.2346 -0.9063 0.3516
vn -0.9997 -0.0050 0.0235
vn -0.0396 -0.9992 -0.0078
vn 0.9993 -0.0316 -0.0220
vn 1.0000 -0.0004 -0.0082
vn 1.0000 0.0001 -0.0082
vn -1.0000 0.0000 -0.0001
usemtl wire_088144225
s off
f 9/15/7 10/16/7 11/17/7 12/18/7
f 13/19/8 14/20/8 15/21/8 16/22/8
f 17/23/9 18/24/9 66/25/9 64/26/9
f 18/24/10 23/27/10 63/28/10 66/25/10
f 23/27/11 25/29/12 65/30/13 63/28/14
f 29/31/15 30/32/15 31/33/15 32/34/15
f 21/35/9 20/36/9 33/37/9 34/38/9
f 35/39/16 36/40/16 37/41/16 38/42/16
f 28/43/17 27/44/17 39/45/17 40/46/17
f 41/47/18 42/48/18 43/49/18 44/50/18
f 34/38/9 33/37/9 45/51/9 46/52/9
f 47/53/19 48/54/19 49/55/19 50/56/19
f 40/46/17 39/45/17 51/57/17 52/58/17
f 51/57/20 46/52/20 12/18/20 11/17/20
f 46/52/9 45/51/9 9/15/9 12/18/9
f 45/51/21 52/58/21 10/16/21 9/15/21
f 52/58/22 51/57/22 11/17/22 10/16/22
f 27/44/23 21/35/23 30/32/23 29/31/23
f 21/35/24 34/38/24 31/33/24 30/32/24
f 34/38/25 39/45/25 32/34/25 31/33/25
f 39/45/26 27/44/26 29/31/26 32/34/26
f 20/36/27 28/43/27 36/40/27 35/39/27
f 28/43/28 40/46/28 37/41/28 36/40/28
f 40/46/29 33/37/29 38/42/29 37/41/29
f 33/37/30 20/36/30 35/39/30 38/42/30
f 39/45/31 34/38/31 42/48/31 41/47/31
f 34/38/32 46/52/32 43/49/32 42/48/32
f 46/52/33 51/57/33 44/50/33 43/49/33
f 51/57/34 39/45/34 41/47/34 44/50/34
f 33/37/35 40/46/35 48/54/35 47/53/35
f 40/46/36 52/58/36 49/55/36 48/54/36
f 52/58/37 45/51/37 50/56/37 49/55/37
f 45/51/38 33/37/38 47/53/38 50/56/38
f 53/59/39 54/60/39 55/61/39 56/62/39
f 28/43/40 20/36/40 55/61/40 54/60/40
f 20/36/41 19/63/41 57/64/41 56/62/41 55/61/41
f 58/65/42 53/59/42 56/62/42 57/64/42
f 24/66/43 28/43/43 54/60/43 53/59/43 58/65/43
f 57/64/44 19/63/44 24/66/44 58/65/44
f 26/67/45 65/30/45 64/26/45 22/68/45
f 21/35/46 27/44/46 15/21/46 14/20/46
f 27/44/47 26/67/47 59/69/47 16/22/47 15/21/47
f 60/70/48 13/19/49 16/22/48 59/69/48
f 22/68/50 21/35/50 14/20/50 13/19/50 60/70/50
f 59/69/51 26/67/51 22/68/51 60/70/51
f 66/25/10 63/28/10 24/66/10 19/63/10
f 63/28/52 65/30/53 26/67/54 27/44/54 28/43/54 24/66/54
f 64/26/45 65/30/45 25/29/45 17/23/45
f 64/26/55 66/25/55 19/63/55 20/36/55 21/35/55 22/68/55
l 61 62
